<svg width="46" height="47" viewBox="0 0 46 47" fill="none" xmlns="http://www.w3.org/2000/svg">
<g id="&#240;&#159;&#166;&#134; icon &#34;chevron circle right alt&#34;">
<path id="Vector" d="M22.7486 46.4204C18.2494 46.4204 13.8512 45.0591 10.1102 42.5088C6.36919 39.9584 3.45343 36.3335 1.73164 32.0924C0.00985464 27.8513 -0.440643 23.1845 0.437121 18.6821C1.31488 14.1798 3.48149 10.0441 6.66294 6.79811C10.9291 2.44535 16.7153 -4.58638e-08 22.7486 0C28.7819 4.58638e-08 34.5681 2.44535 38.8343 6.79811C43.1005 11.1509 45.4972 17.0545 45.4972 23.2102C45.4972 29.3659 43.1005 35.2695 38.8343 39.6223C36.7268 41.7843 34.22 43.4984 31.4589 44.6653C28.6978 45.8322 25.7372 46.4287 22.7486 46.4204ZM22.7486 3.09474C11.8776 3.09474 3.03322 12.1186 3.03322 23.2102C3.03322 34.3019 11.8776 43.3257 22.7486 43.3257C33.6197 43.3257 42.464 34.3019 42.464 23.2102C42.464 12.1186 33.6197 3.09474 22.7486 3.09474Z" fill="white"/>
<path id="Vector_2" d="M20.0295 35.1357L17.8849 32.9476L27.4284 23.2102L17.8849 13.4729L20.0295 11.2848L31.7179 23.2102L20.0295 35.1357Z" fill="white"/>
</g>
</svg>
